<?xml version="1.0" encoding="UTF-8"?> <svg xmlns="http://www.w3.org/2000/svg" width="500" height="500" viewBox="0 0 500 500" fill="none"><g clip-path="url(#clip0_1101_5401)"><path fill-rule="evenodd" clip-rule="evenodd" d="M500 250C500 388.071 388.071 500 250 500C111.929 500 0 388.071 0 250C0 111.929 111.929 0 250 0C388.071 0 500 111.929 500 250ZM249.988 432.395C350.72 432.395 432.383 350.732 432.383 250H432.395C432.395 149.268 350.732 67.6047 250 67.6047C149.268 67.6047 67.6047 149.268 67.6047 250C67.6047 350.732 149.256 432.395 249.988 432.395Z" fill="#E52521"></path><path d="M36.6264 254.175L39.2785 244.769C43.1094 245.31 46.3263 246.906 48.917 249.546C51.5323 252.222 52.9935 256.053 53.3127 261.026C53.7424 267.816 52.2936 272.961 48.9539 276.448C45.6264 279.947 41.4272 281.862 36.3317 282.194C31.1994 282.525 26.7423 281.199 22.9606 278.216C19.1665 275.232 17.1161 271.18 16.7845 266.048C16.5144 261.885 17.3248 258.435 19.2157 255.685L16.8459 255.832L16.3057 247.323L29.2471 246.501L29.8119 255.341C28.228 255.906 27.0001 256.753 26.1407 257.907C25.2935 259.049 24.9128 260.326 24.9988 261.714C25.2443 265.557 28.67 267.263 35.2758 266.834C41.8938 266.416 45.0862 264.218 44.8283 260.24C44.6073 256.765 41.8815 254.739 36.6387 254.162L36.6264 254.175Z" fill="white"></path><path d="M55.5105 210.93L51.8393 244.524L43.3918 243.603L43.7356 240.435L25.3426 238.421L24.9988 241.589L16.5513 240.668L18.7614 220.495L27.2089 221.416L26.8405 224.768L45.2335 226.782L46.1421 218.432L40.4818 217.818L41.4027 209.395L55.5105 210.943V210.93Z" fill="white"></path><path d="M29.8364 203.097L29.0997 205.724L20.9223 203.416L25.8583 185.931L34.0357 188.24L33.5814 189.861L45.0985 193.114C47.8488 193.888 49.8011 194.158 50.943 193.912C52.0726 193.667 52.8338 192.869 53.2145 191.506C53.5337 190.376 53.3495 189.443 52.6497 188.694C51.9744 187.957 50.3659 187.233 47.8243 186.509L35.4968 183.034L35.0179 184.753L26.8405 182.444L30.4626 169.601L38.64 171.91L37.8788 174.611L50.2554 178.098C53.4109 178.994 55.8789 180.173 57.6224 181.659C59.3659 183.144 60.4956 185.109 61.0235 187.552C61.5515 189.996 61.3796 192.783 60.4956 195.889C59.7834 198.394 58.8625 200.53 57.7084 202.286C56.5665 204.091 55.2281 205.393 53.6933 206.191C52.1708 207.001 50.4887 207.431 48.6346 207.492C46.8174 207.578 44.2021 207.148 40.7888 206.178L29.8364 203.084V203.097Z" fill="white"></path><path d="M73.0072 162.062L64.0686 180.05L56.456 176.268L57.8311 173.506L41.2553 165.267L39.8802 168.03L32.2676 164.248L41.9306 144.823C43.8215 141.017 45.5159 138.181 46.9893 136.315C48.475 134.485 50.1817 133.319 52.1217 132.827C54.0862 132.349 56.0017 132.557 57.8434 133.478C59.6361 134.375 60.8025 135.639 61.3059 137.285C61.8339 138.967 61.9076 140.735 61.5269 142.576C63.3073 140.673 65.1982 139.458 67.1995 138.954C69.2378 138.451 71.1532 138.635 72.9335 139.519C75.07 140.575 76.5434 142.171 77.3538 144.283C78.1519 146.395 78.1764 148.753 77.452 151.368C76.7521 153.959 75.2664 157.532 73.0195 162.075L73.0072 162.062ZM46.7315 152.645L52.5392 155.53L53.8898 152.804C54.8107 150.963 55.1422 149.612 54.8966 148.777C54.6388 147.967 54.074 147.341 53.2022 146.911C52.4532 146.542 51.6551 146.456 50.8202 146.665C49.973 146.874 48.9907 148.102 47.8734 150.361L46.7438 152.645H46.7315ZM58.3223 158.403L64.5842 161.522L65.9594 158.759C66.8435 156.991 67.2364 155.604 67.175 154.597C67.1013 153.615 66.4751 152.829 65.3209 152.252C64.2405 151.712 63.2705 151.662 62.411 152.092C61.5638 152.534 60.6552 153.725 59.6852 155.69L58.3346 158.403H58.3223Z" fill="white"></path><path d="M98.0305 123.656L87.2379 136.155L80.804 130.593L82.6212 128.493L68.6116 116.399L66.7944 118.499L60.3605 112.949L71.4724 100.081C74.014 97.1465 76.261 94.9119 78.2255 93.3648C80.2023 91.8054 82.4616 90.6881 85.0032 90.0128C87.5448 89.3498 90.1969 89.3866 92.935 90.1233C94.2611 90.4671 95.5626 90.9582 96.8273 91.6335C98.0919 92.2966 99.3075 93.1315 100.462 94.1383C102.795 96.152 104.489 98.4849 105.557 101.137C106.613 103.765 107.006 106.269 106.724 108.651C106.478 110.997 105.741 113.182 104.538 115.196C103.347 117.197 101.174 120.021 98.0305 123.668V123.656ZM77.5993 105.999L91.609 118.093L92.4562 117.111C94.568 114.668 95.2925 112.507 94.6294 110.653C93.9541 108.811 92.6281 107.031 90.6512 105.336C89.4725 104.317 88.1587 103.458 86.7344 102.758C85.2979 102.082 83.9104 101.874 82.5844 102.144C81.2583 102.402 79.7112 103.556 77.9308 105.619L77.5993 106.012V105.999Z" fill="white"></path><path d="M140.649 84.5489L114.078 105.545L108.811 98.8778L110.972 97.1711L99.4917 82.658L97.2939 84.4016L92.0264 77.7344L118.634 56.7015L125.681 65.6156L118.376 71.3865L116.608 69.1395L110.284 74.1368L113.673 78.422L119.174 74.0754L123.656 79.748L118.155 84.0946L121.765 88.6621L128.088 83.6649L126.32 81.4179L133.626 75.6471L140.673 84.5612L140.649 84.5489Z" fill="white"></path><path d="M166.519 70.8462L149.01 78.9377L145.45 71.2268L148.065 70.0113L140.293 53.2145L137.677 54.43L134.117 46.7192L151.626 38.6278C153.197 37.9033 154.671 37.2526 156.046 36.6878C157.409 36.123 158.6 35.6687 159.607 35.3249C160.613 34.9811 161.559 34.711 162.431 34.5145C164.911 33.9497 167.219 34.1462 169.368 35.1039C171.541 36.0861 173.15 37.6823 174.181 39.9047C174.955 41.5746 175.225 43.2813 174.979 45.0494C174.734 46.7929 174.058 48.3031 172.941 49.5924L180.799 54.9089L183.12 53.8407L186.68 61.5515L175.077 66.9171L161.976 57.0085L158.01 58.838L160.527 64.2773L162.959 63.1477L166.519 70.8585V70.8462ZM152.448 46.8174L155.285 52.9566L156.672 52.3182C158.489 51.4709 159.705 50.8448 160.306 50.4396C160.945 50.0098 161.399 49.4327 161.645 48.696C161.903 47.9962 161.841 47.2226 161.448 46.4C161.068 45.5651 160.515 45.0125 159.815 44.7424C159.103 44.4477 158.342 44.4232 157.556 44.6564C156.795 44.8775 155.469 45.4177 153.59 46.2895L152.461 46.8174H152.448Z" fill="white"></path><path d="M179.559 36.1475L176.919 36.8228L174.807 28.5963L192.402 24.0656L194.514 32.2921L192.881 32.7096L195.865 44.3004C196.577 47.063 197.326 48.8925 198.112 49.752C198.897 50.6115 199.966 50.857 201.341 50.501C202.483 50.2063 203.195 49.5801 203.49 48.6101C203.784 47.6524 203.612 45.8966 202.949 43.3427L199.757 30.9292L198.026 31.3712L195.914 23.1447L208.843 19.8173L210.967 28.0438L208.254 28.7437L211.458 41.2062C212.281 44.3863 212.49 47.1121 212.084 49.3713C211.679 51.6183 210.55 53.5828 208.696 55.2772C206.842 56.9594 204.361 58.2118 201.23 59.0221C198.713 59.6729 196.393 59.943 194.293 59.8325C192.169 59.7466 190.364 59.2432 188.903 58.3223C187.442 57.4137 186.214 56.1736 185.232 54.6019C184.249 53.0794 183.304 50.5992 182.42 47.1612L179.584 36.1353L179.559 36.1475Z" fill="white"></path><path d="M242.731 40.1748L239.109 40.4204L238.655 33.6919L254.494 32.6236C254.752 36.4913 254.678 39.389 254.261 41.3167C253.855 43.1708 252.873 45.0862 251.326 47.063C249.804 49.0276 247.9 50.5132 245.617 51.5201C243.333 52.5269 240.853 53.1162 238.164 53.3004C234.173 53.5705 230.502 53.1531 227.15 52.048C223.786 50.9798 221.109 49.0153 219.132 46.1421C217.131 43.3304 216.013 40.0889 215.768 36.4422C215.4 30.9292 216.91 26.3494 220.311 22.7273C223.675 19.1052 227.985 17.1161 233.203 16.76C237.562 16.4653 241.061 17.288 243.677 19.2525L243.505 16.7845L252.038 16.2075L252.873 28.5841L244.34 29.1611C243.492 27.6877 242.436 26.595 241.184 25.8951C239.932 25.1952 238.507 24.9005 236.911 25.0111C234.664 25.1584 233.068 26.0056 232.123 27.5404C231.19 29.0752 230.846 31.7887 231.116 35.6932C231.374 39.5855 232.098 42.1885 233.277 43.5023C234.48 44.8406 236.125 45.43 238.237 45.2949C241.43 45.0739 242.915 43.3795 242.707 40.1871L242.731 40.1748Z" fill="white"></path><path d="M275.907 54.074L255.992 51.4709L257.097 43.048L260.154 43.4532L262.549 25.1093L259.491 24.7041L260.596 16.2811L282.108 19.0929C286.319 19.6454 289.561 20.3207 291.808 21.1065C294.018 21.9046 295.676 23.1447 296.781 24.8146C297.873 26.5213 298.291 28.3876 298.033 30.4381C297.775 32.4272 296.953 33.9374 295.565 34.9565C294.141 36.0002 292.495 36.651 290.629 36.8842C293.011 37.9525 294.767 39.3522 295.897 41.0712C297.038 42.827 297.48 44.7056 297.223 46.6824C296.916 49.0398 295.897 50.9553 294.153 52.4041C292.422 53.8407 290.199 54.6388 287.486 54.7984C284.797 54.9826 280.942 54.737 275.92 54.0862L275.907 54.074ZM274.581 38.9961L273.673 45.9334L276.73 46.3386C278.682 46.5964 280.131 46.5228 281.052 46.1299C281.961 45.7369 282.501 44.8897 282.673 43.6128C282.832 42.4095 282.562 41.4764 281.887 40.8133C281.199 40.1626 279.763 39.6837 277.59 39.4013L274.581 39.0084V38.9961ZM276.263 26.1652L275.429 32.5991L278.437 32.992C280.475 33.2621 281.862 33.1393 282.575 32.6359C283.262 32.1202 283.667 31.3835 283.79 30.4258C283.901 29.6032 283.716 28.8173 283.25 28.0929C282.783 27.3562 281.298 26.8283 278.793 26.509L276.263 26.1775V26.1652Z" fill="white"></path><path d="M320.736 65.1736L302.294 59.1449L304.933 51.0658L307.647 51.9498L309.403 46.5842L304.884 31.5677L302.576 30.8187L305.216 22.7396L322.848 28.5104L320.208 36.5896L318.194 35.9265L319.532 43.9934L326.126 38.5173L324.063 37.842L326.703 29.7628L339.681 34.0111L337.041 42.0903L334.93 41.4027L322.442 50.857L320.687 56.2227L323.351 57.0945L320.711 65.1736H320.736Z" fill="white"></path><path d="M353.2 81.467L336.084 70.9567L340.528 63.7125L343.156 65.3332L352.831 49.5555L350.204 47.9471L354.649 40.7028L373.14 52.048C376.762 54.2704 379.439 56.1981 381.17 57.8434C382.864 59.4765 383.871 61.2814 384.19 63.2582C384.497 65.2596 384.117 67.1382 383.036 68.894C381.993 70.6007 380.617 71.6443 378.935 72.0127C377.204 72.3933 375.436 72.3074 373.643 71.7548C375.387 73.7071 376.418 75.6962 376.75 77.7344C377.069 79.8094 376.713 81.7003 375.669 83.3947C374.429 85.4207 372.71 86.7467 370.537 87.3729C368.364 87.9746 366.006 87.8027 363.464 86.845C360.935 85.9118 357.522 84.1192 353.2 81.4793V81.467ZM358.148 67.1627L354.489 73.1177L357.117 74.7385C358.799 75.7699 360.137 76.2978 361.144 76.3101C362.138 76.3101 362.973 75.7699 363.649 74.6771C364.275 73.6457 364.422 72.688 364.066 71.7917C363.71 70.9076 362.593 69.9008 360.726 68.7466L358.136 67.1627H358.148ZM364.913 56.1367L361.524 61.662L364.115 63.2459C365.871 64.3264 367.185 64.7807 368.044 64.6088C368.879 64.4246 369.555 63.9089 370.058 63.0863C370.488 62.3741 370.647 61.5883 370.512 60.7288C370.377 59.8694 369.235 58.7766 367.099 57.4628L364.926 56.1245L364.913 56.1367Z" fill="white"></path><path d="M378.334 99.6636L367.885 90.2461L373.57 83.935L375.583 85.7522L392.92 76.4697L390.796 74.5543L396.481 68.2432L415.439 85.3347L409.754 91.6458L407.63 89.7304L400.287 108.025L402.215 109.769L396.53 116.08L382.766 103.679L387.972 97.8955L390.28 99.9828L392.27 95.7591L385.516 89.6813L381.366 91.9528L383.527 93.905L378.321 99.6881L378.334 99.6636ZM398.556 82.2283L389.495 87.287L394.209 91.5476L398.556 82.2283Z" fill="white"></path><path d="M405.555 128.113L395.609 114.926L402.387 109.806L404.069 112.028L418.84 100.879L417.17 98.6568L423.948 93.5367L434.188 107.104C436.521 110.198 438.24 112.875 439.333 115.11C440.438 117.369 441.052 119.812 441.187 122.44C441.297 125.068 440.708 127.646 439.418 130.175C438.805 131.403 438.043 132.57 437.122 133.662C436.202 134.755 435.133 135.774 433.906 136.695C431.45 138.549 428.81 139.716 425.998 140.195C423.211 140.686 420.682 140.538 418.41 139.752C416.163 139.016 414.186 137.849 412.467 136.241C410.761 134.657 408.452 131.943 405.555 128.1V128.113ZM427.103 111.844L412.332 122.993L413.118 124.036C415.07 126.615 417.023 127.781 418.975 127.511C420.915 127.241 422.929 126.308 425.016 124.748C426.268 123.803 427.373 122.71 428.356 121.458C429.326 120.193 429.817 118.879 429.829 117.529C429.854 116.19 429.056 114.422 427.41 112.249L427.103 111.844Z" fill="white"></path><path d="M424.574 157.274L418.3 144.688L425.912 140.894L427.116 143.313L446.65 141.017L445.374 138.463L452.986 134.669L464.368 157.507L456.756 161.301L455.479 158.747L441.948 173.076L443.114 175.409L435.502 179.203L427.238 162.615L434.2 159.14L435.588 161.927L438.976 158.723L434.925 150.594L430.234 151.196L431.536 153.799L424.574 157.274ZM449.769 148.446L439.48 149.833L442.316 155.518L449.769 148.433V148.446Z" fill="white"></path><path d="M423.96 180.234L432.211 177.459C432.26 178.012 432.346 178.515 432.493 178.957C432.837 179.989 433.414 180.529 434.225 180.578C435.047 180.603 436.828 180.161 439.566 179.24L460.783 172.118L459.739 169.024L467.794 166.323L474.179 185.318L466.124 188.019L465.154 185.146L445.435 191.764C441.776 192.991 439.161 193.765 437.589 194.072C436.005 194.391 434.372 194.318 432.702 193.863C430.996 193.372 429.547 192.5 428.343 191.236C427.152 189.971 426.096 188.006 425.212 185.342C424.697 183.807 424.279 182.113 423.96 180.247V180.234Z" fill="white"></path><path d="M458.757 193.114C461.679 192.611 464.626 192.832 467.597 193.777C470.556 194.71 473.233 196.503 475.603 199.143C476.438 200.088 477.15 201.083 477.727 202.127C478.304 203.17 478.82 204.337 479.25 205.601C479.692 206.878 480.035 208.229 480.281 209.666C481.374 215.94 480.379 221.109 477.31 225.185C475.799 227.211 474.056 228.844 472.104 230.084C470.139 231.325 467.978 232.147 465.621 232.565C460.746 233.412 456.191 232.368 451.967 229.446C447.743 226.524 445.103 222.03 444.06 215.977C443.041 210.12 443.912 205.086 446.663 200.862C449.401 196.626 453.428 194.035 458.757 193.114ZM461.397 208.303C457.505 208.978 454.951 209.813 453.723 210.807C452.47 211.765 451.979 213.018 452.249 214.565C452.52 216.087 453.379 217.119 454.828 217.634C456.301 218.15 459.015 218.076 462.968 217.389C466.812 216.726 469.353 215.903 470.618 214.921C471.87 213.963 472.349 212.698 472.079 211.114C471.821 209.604 470.962 208.585 469.501 208.069C468.039 207.541 465.338 207.627 461.384 208.315L461.397 208.303Z" fill="white"></path><path d="M447.264 270.051L447.78 235.008L455.896 235.131L475.247 252.898L475.382 244.02L470.998 243.959L471.121 235.818L483.289 235.99L482.786 270.444L475.591 270.333L455.344 251.658L455.196 261.898L460.046 261.971L459.923 270.235L447.289 270.051H447.264Z" fill="white"></path><path d="M96.6063 430.038L99.6267 425.372L103.2 427.68L115.036 409.398L111.463 407.077L114.484 402.411L128.334 411.375L123.913 431.474L140.477 419.245L154.597 428.38L151.577 433.046L148.004 430.738L136.167 449.02L139.74 451.328L136.72 455.994L122.821 446.994L125.841 442.328L129.181 444.489L141.017 426.207L140.366 425.777L116.952 443.188L113.98 441.26L120.181 412.701L119.53 412.271L107.694 430.553L111.303 432.899L108.283 437.564L96.6063 430.001V430.038Z" fill="white"></path><path d="M180.504 438.006L185.661 440.069L181.364 450.825L176.207 448.762C176.281 444.318 174.513 441.358 170.903 439.922C167.919 438.731 165.255 438.841 162.909 440.266C160.564 441.69 158.833 443.826 157.691 446.663C156.5 449.634 156.353 452.36 157.237 454.852C158.121 457.333 159.815 459.076 162.32 460.083C164.371 460.906 166.446 460.918 168.533 460.144C170.62 459.371 172.438 457.848 173.972 455.589L178.847 460.856C173.727 467.033 167.281 468.58 159.508 465.473C154.02 463.275 150.471 460.144 148.863 456.08C147.255 452.004 147.353 447.706 149.158 443.188C150.447 439.971 152.289 437.442 154.708 435.6C157.126 433.758 159.803 432.727 162.738 432.481C165.672 432.236 168.607 432.702 171.541 433.869C175.188 435.33 177.865 437.503 179.559 440.376L180.504 438.006Z" fill="white"></path><path d="M179.915 473.258L180.946 467.794L185.133 468.58L189.173 447.178L184.986 446.393L186.017 440.929L202.237 443.998L205.749 464.27L216.455 446.687L232.982 449.806L231.951 455.27L227.764 454.484L223.724 475.885L227.911 476.671L226.88 482.135L210.611 479.065L211.642 473.601L215.547 474.338L219.586 452.937L218.825 452.79L203.735 477.764L200.248 477.101L195.189 448.32L194.416 448.173L190.376 469.574L194.6 470.372L193.569 475.836L179.903 473.258H179.915Z" fill="white"></path><path d="M232.074 481.791L232.123 476.229L236.825 476.278L237.034 454.496L232.331 454.447L232.381 448.885L250.454 449.057L250.405 454.619L245.604 454.57L245.396 476.352L255.12 476.45L255.218 466.284L261.628 466.345L261.48 482.074L232.086 481.791H232.074Z" fill="white"></path><path d="M263.359 482.172L262.622 476.659L267.423 476.008L273.845 463.73L264.513 454.423L260.031 455.024L259.295 449.511L276.362 447.215L277.098 452.716L273.98 453.133L279.321 458.266L282.697 451.967L279.751 452.36L279.014 446.859L293.711 444.882L294.448 450.395L289.929 451.009L283.643 462.747L293.637 472.484L298.328 471.858L299.064 477.371L281.531 479.728L280.794 474.228L284.06 473.786L278.277 468.015L274.471 475.075L277.823 474.621L278.56 480.121L263.371 482.172H263.359Z" fill="white"></path><path d="M300.611 477.039L299.028 471.711L303.669 470.335L308.126 457.222L297.468 449.462L293.134 450.751L291.55 445.423L308.052 440.524L309.636 445.852L306.616 446.749L312.693 450.997L315.051 444.244L312.202 445.091L310.618 439.762L324.837 435.538L326.421 440.867L322.05 442.169L317.654 454.742L329.024 462.821L333.554 461.47L335.138 466.799L318.182 471.833L316.598 466.505L319.753 465.571L313.148 460.758L310.483 468.322L313.725 467.364L315.309 472.693L300.624 477.052L300.611 477.039Z" fill="white"></path><path d="M336.661 466.185L334.266 461.163L338.65 459.076L341.007 445.423L329.281 439.406L325.205 441.346L322.811 436.324L338.355 428.92L340.737 433.93L337.889 435.281L344.543 438.522L345.833 431.487L343.144 432.764L340.749 427.754L354.133 421.382L356.527 426.403L352.402 428.368L350.007 441.469L362.495 447.682L366.767 445.644L369.162 450.665L353.187 458.278L350.805 453.268L353.777 451.856L346.508 448.136L345.047 456.019L348.104 454.57L350.499 459.58L336.661 466.173V466.185Z" fill="white"></path><path d="M370.34 449.462L367.369 444.76L371.581 442.095L359.941 423.69L355.717 426.354L352.745 421.652L368.462 411.718L371.433 416.421L367.173 419.11L378.812 437.515L383.073 434.826L386.044 439.529L370.328 449.462H370.34Z" fill="white"></path><path d="M387.37 438.608L384.018 434.176L387.997 431.167L374.871 413.781L370.893 416.789L367.541 412.357L382.373 401.159L385.725 405.592L381.71 408.624L394.836 426.01L398.851 422.978L402.203 427.41L387.37 438.608Z" fill="white"></path><path d="M432.383 250C432.383 350.732 350.72 432.395 249.988 432.395C149.256 432.395 67.6047 350.732 67.6047 250C67.6047 149.268 149.268 67.6047 250 67.6047C350.732 67.6047 432.395 149.268 432.395 250H432.383Z" fill="#010101"></path><path fill-rule="evenodd" clip-rule="evenodd" d="M128.972 173.088C128.972 173.088 143.706 175.311 147.328 177.815C147.328 177.815 145.658 173.371 143.154 171.971C143.154 171.971 140.268 170.019 137.395 170.854C137.395 170.854 133.417 170.854 128.96 173.076L128.972 173.088Z" fill="#E52521"></path><path d="M113.673 183.107C113.673 183.107 140.931 185.33 154.83 196.454C154.83 196.454 155.383 187.957 153.443 185.674C153.443 185.674 142.319 179.768 123.962 175.593C123.962 175.593 116.46 177.263 113.673 183.095V183.107Z" fill="#E52521"></path><path d="M109.192 194.588L108.983 194.821H107.129V198.861L106.392 198.811C104.28 198.664 102.917 198.996 102.451 199.781C101.861 200.776 102.709 202.507 103.052 203.047C103.863 204.447 104.072 205.491 103.703 206.277C103.445 206.829 102.942 207.099 102.598 207.161H102.524H102.451C100.99 207.124 99.1233 207.308 98.5463 208.425C97.699 210.095 99.7741 213.386 100.572 214.405L101.346 215.4L100.093 215.51C97.785 215.719 96.7291 218.825 96.5449 219.415L96.8641 225.505L95.931 225.222C95.0715 224.964 94.4207 225.038 93.9664 225.455C92.3948 226.868 92.8736 231.632 93.1929 233.338L93.2911 233.891L92.7754 234.099C90.7986 234.885 91.6212 238.446 91.7686 239.035C93.0578 241.172 93.1929 244.303 93.2052 245.015C93.8191 246.341 96.1765 246.402 96.9378 246.378L100.363 242.731C101.677 241.638 102.34 240.447 102.402 239.17C102.524 236.69 100.4 234.529 100.388 234.505L99.8232 233.94L100.474 233.473C104.98 230.22 102.77 224.891 102.745 224.842L102.438 224.117L103.187 223.908C104.685 223.491 105.655 222.84 106.061 221.968C106.552 220.925 106.085 219.857 106.085 219.844L104.096 213.865H107.902L109.621 212.735V205.184L112.986 206.571L113.01 203.796C113.931 200.371 113.268 194.047 113.047 192.292C111.623 192.169 109.806 193.863 109.179 194.6L109.192 194.588Z" fill="#E52521"></path><path d="M157.335 203.956C140.096 188.387 106.171 187.27 106.171 187.27C79.4779 209.518 82.5352 249.153 82.5352 249.153C101.162 247.63 122.022 257.809 122.022 257.809L134.301 255.673L135.934 229.814L149.563 239.821L150.68 221.183L160.626 228.967C160.847 220.065 157.347 203.944 157.347 203.944L157.335 203.956ZM114.361 204.042V208.597L110.997 207.21V213.46L108.32 215.215H106.011L107.374 219.316C107.374 219.316 108.087 220.876 107.325 222.496C106.81 223.601 105.778 224.436 104.256 224.977C104.747 226.659 105.52 230.981 101.874 234.087C102.61 235.008 103.887 236.948 103.789 239.195C103.715 240.889 102.881 242.4 101.321 243.701L97.5885 247.679L97.3307 247.704C97.3307 247.704 97.0851 247.728 96.7659 247.728C95.538 247.728 92.714 247.495 91.9159 245.371L91.8668 245.125C91.8668 245.125 91.8422 241.675 90.5776 239.649L90.5039 239.477C90.4425 239.269 89.1287 234.689 91.7931 233.056C91.5353 231.349 90.9705 226.303 93.0824 224.412C93.5367 224.007 94.2857 223.601 95.4275 223.7L95.1942 219.243L95.2188 219.144C95.2679 218.973 96.2379 215.4 98.9023 214.38C97.9201 212.907 96.2747 209.911 97.343 207.799C98.0428 206.412 99.7495 205.7 102.389 205.786C102.414 205.773 102.451 205.736 102.475 205.675C102.524 205.552 102.635 205.049 101.886 203.76C101.837 203.674 100.142 201.009 101.272 199.082C101.96 197.927 103.482 197.375 105.754 197.412V193.458H108.357C109.13 192.623 111.623 190.229 113.906 191.088L114.287 191.236L114.349 191.641C114.398 191.972 115.454 199.781 114.349 204.054L114.361 204.042Z" fill="#E52521"></path><path fill-rule="evenodd" clip-rule="evenodd" d="M84.4752 261.247C84.4752 261.247 82.3142 257.072 82.4247 253.733C82.4247 253.733 118.486 251.572 134.289 270.173C134.289 270.173 133.699 274.594 128.972 274.029C128.972 274.029 108.357 260.965 84.4752 261.235V261.247Z" fill="#E52521"></path><path fill-rule="evenodd" clip-rule="evenodd" d="M87.2501 268.16C87.2501 268.16 93.9296 292.95 113.673 289.61C113.673 289.61 123.41 284.048 126.185 280.438C126.185 280.438 126.185 278.486 122.845 277.098C122.845 277.098 106.441 266.453 87.2501 268.16Z" fill="#E52521"></path><path fill-rule="evenodd" clip-rule="evenodd" d="M185.833 201.734C183.537 212.391 182.85 232.945 165.648 232C162.517 224.633 163.29 207.541 160.601 196.687C171.431 188.608 173.972 202.36 185.833 201.734Z" fill="#F4E600"></path><path fill-rule="evenodd" clip-rule="evenodd" d="M210.058 158.342C195.189 162.627 175.028 152.559 173.727 143.203C172.929 137.432 174.93 134.78 177.766 134.117C186.545 132.078 192.967 163.879 210.058 158.33V158.342Z" fill="#F4E600"></path><path fill-rule="evenodd" clip-rule="evenodd" d="M387.653 188.62C394.308 184.507 400.287 179.731 400.766 169.454C409.435 185.244 395.904 201.279 387.653 209.813C391.042 215.117 397.07 208.585 401.785 208.806C397.721 221.563 385.811 226.475 378.579 236.052C380.716 240.644 388.647 239.441 393.718 241.098C378.37 252.566 337.692 233.289 333.174 256.237C338.429 262.757 350.597 262.352 362.433 262.291C354.992 269.78 331.283 273.39 325.095 262.291C322.234 267.276 324.886 277.369 319.041 281.457C323.302 288.972 326.31 297.726 325.095 310.717C327.133 313.013 328.447 306.051 332.155 306.677C336.808 313.455 339.166 322.541 346.287 326.863C350.597 328.422 351.432 321.337 353.347 323.83C353.421 327.268 353.666 330.865 351.333 331.897C351.162 334.082 354.906 332.351 356.38 332.904V340.971C353.961 341.584 351.775 342.419 348.313 341.977C346.962 349.369 339.215 350.376 341.253 361.156C332.633 360.849 330.571 368.155 332.167 375.289C321.914 373.103 324.542 383.81 316.021 383.355C314.339 384.694 314.449 387.837 312.988 389.409C309.329 390.379 312.141 384.878 308.948 385.369C304.651 387.125 304.909 393.436 298.856 393.436C296.756 386.658 288.321 390.489 282.71 391.422C282.108 385.774 286.504 385.124 287.756 381.33C284.588 381.084 277.86 381.194 274.643 378.297V371.237C276.988 369.874 280.377 369.567 282.71 368.204C282.255 365.294 279.137 365.048 279.677 361.144C285.313 356.441 296.216 360.518 300.869 363.158C302.465 356.552 304.086 349.578 307.929 342.972C295.798 336.845 276.693 336.01 274.63 322.786C272.027 306.051 293.269 305.596 296.83 290.494C294.227 287.375 295.418 280.475 288.763 281.408C285.325 285.239 290.15 289.401 290.776 292.508C284.539 292.017 283.201 286.626 279.677 283.422C267.177 274.336 245.874 280.229 236.285 268.283C232.7 263.813 235.18 258.902 228.218 256.176C225.001 259.467 229.79 263.297 229.225 267.276C225.64 268.761 215.608 269.093 212.072 267.276C208.327 268.921 208.929 274.901 207.026 278.375C201.267 275.49 189.283 272.543 187.859 281.408C183.599 281.285 182.751 277.761 179.792 276.362C176.71 279.64 172.253 284.736 166.679 282.415C164.579 279.137 166.9 271.438 164.665 268.283C156.07 269.658 149.637 276.693 140.452 274.336C138.058 271.205 143.375 269.044 144.492 266.269C144.578 262.487 137.346 266.011 137.432 262.229C137.223 256.974 145.793 260.51 147.525 257.183C147.414 252.247 140.612 254.003 139.458 250.123C138.807 246.439 140.133 244.745 141.471 243.063C145.72 240.607 146.113 245.924 149.538 247.102C151.798 243.984 151.638 238.434 155.592 237.009C163.364 240.668 158.87 256.606 170.731 256.176C172.094 253.499 172.327 249.705 174.77 248.109C191.297 247.814 202.544 242.252 215.129 238.016C215.608 243.247 214.037 250.54 216.136 254.162C226.573 254.162 228.537 245.703 234.296 241.049C242.977 246.832 258.533 245.739 263.555 255.181C267.423 251.314 268.995 245.15 269.609 238.029C289.291 238.557 308.052 248.674 313 267.288C315.395 246.243 336.366 246.722 353.359 234.996C371.102 222.767 380.728 185.735 369.505 164.358C363.796 153.48 346.078 146.948 337.213 159.312C337.348 161.804 337.361 164.174 336.206 165.365C332.99 166.225 333.088 163.781 331.16 163.352C331.614 169.11 333.898 186.238 330.153 193.618C323.695 190.315 322.835 181.425 321.067 173.432C318.624 174.353 318.391 177.484 318.034 180.492C314.903 176.232 314.805 168.926 315.002 161.326C320.699 159.398 324.579 153.357 332.155 156.279C339.313 151.331 345.464 145.376 359.4 147.193C375.853 153.946 379.144 173.874 387.653 188.559V188.62Z" fill="#F4E600"></path><path fill-rule="evenodd" clip-rule="evenodd" d="M287.756 297.591C284.736 306.689 273.268 307.315 269.596 315.751C270.615 322.798 264.452 330.153 265.557 337.95C266.244 342.788 271.156 343.5 270.603 349.05C267.755 349.897 264.378 350.216 261.517 351.063C260.203 353.445 261.087 358.037 259.503 360.149C254.482 361.132 255.513 356.073 252.443 355.103C247.237 356.822 253.598 366.166 249.411 367.209C246.623 370.083 247.115 365.233 245.371 364.177C240.767 364.95 241.454 371.016 237.304 372.244C235.426 371.433 233.228 370.942 232.258 369.211C229.716 370.033 230.846 374.527 229.225 376.271C225.652 375.473 224.031 372.722 221.158 371.224C216.726 374.036 213.447 382.766 206.019 379.291C202.483 375.252 208.917 374.724 208.033 370.205C203.084 370.917 199.168 377.106 192.893 373.238C192.549 366.841 196.822 365.061 198.947 361.132C198.664 356.699 192.906 357.743 191.886 354.072C194.674 345.833 214.515 347.417 213.079 358.111C224.412 352.954 237.145 348.73 238.311 336.919C240.005 319.753 217.02 317.899 219.144 299.58C224.215 289.143 250.061 296.412 266.576 291.513C271.905 289.929 274.016 286.946 277.675 287.474C282.722 288.21 285.877 294.951 287.768 297.566L287.756 297.591Z" fill="#F4E600"></path><path fill-rule="evenodd" clip-rule="evenodd" d="M242.338 131.096C238.827 132.631 234.075 132.913 229.225 133.11V130.077C231.582 128.972 238.385 130.581 242.338 131.084V131.096Z" fill="#F4E600"></path><path d="M296.83 220.9C297.075 209.273 289.831 211.2 286.737 202.741C282.28 201.488 275.036 202.998 273.624 198.701C280.156 198.161 289.549 200.506 291.783 195.668C292.213 189.713 285.386 187.945 283.716 181.536C282.501 176.919 284.92 171.885 283.716 167.403C282.255 161.952 279.382 163.106 276.656 158.317C281.359 158.649 284.613 157.532 287.756 156.304V151.257C288.21 148.446 282.255 152.043 282.71 149.244C282.206 139.458 275.76 131.035 269.596 124.012C251.044 121.863 224.093 119.014 215.105 132.078C210.881 133.564 205.086 133.491 200.972 135.111C201.955 139.519 202.851 144.001 204.005 148.225C210.5 151.638 217.696 149.023 226.205 149.231C235.659 161.117 218.641 168.533 207.038 165.377C205.147 168.201 202.188 169.945 201.992 174.463C218.567 179.448 240.828 165.463 232.258 145.204C245.187 157.875 231.018 184.139 213.091 178.503C211.912 180.455 214.012 183.623 211.078 185.563C197.694 192.157 186.398 184.618 171.725 188.596C176.612 195.816 184.986 199.548 194.931 201.709C196.024 206.056 190.057 204.054 188.878 207.762C188.449 209.113 190.634 211.114 189.885 212.809C189.603 213.447 186.263 212.747 185.845 213.816C185.182 215.498 186.472 218.346 185.845 220.876C184.704 225.443 180.566 227.997 180.799 230.969C182.162 248.416 210.316 236.248 219.144 229.962C220.335 235.843 220.299 242.94 221.158 249.128C227.973 246.525 230.49 239.625 235.291 234.996C243.48 240.104 254.518 247.139 265.569 246.095C268.491 240.718 262.684 232 268.602 228.943C272.936 232.024 281.531 236.175 288.787 232.982C284.662 230.035 279.849 227.788 278.695 221.883C284.821 223.994 292.078 224.265 296.854 220.876L296.83 220.9ZM227.199 135.124V128.063C234.971 128.027 240.423 130.31 248.392 130.077C244.573 135.001 233.707 132.877 227.199 135.124ZM234.984 172.462C235.315 172.278 235.733 172.401 235.917 172.72L239.416 178.933L241.933 155.788L247.078 164.543L250.798 143.166C250.859 142.798 251.216 142.54 251.584 142.613C251.952 142.675 252.21 143.031 252.136 143.399L247.778 168.447L242.829 160.049L240.3 183.328L234.713 173.395C234.529 173.064 234.64 172.646 234.971 172.462H234.984ZM252.37 188.878L236.346 218.26L235.155 204.582L231.521 199.597L208.29 207.505L207.59 206.375L222.73 191.236C223 190.966 223.43 190.966 223.7 191.236C223.97 191.506 223.97 191.936 223.7 192.206L210.648 205.258L232.049 197.964L236.494 204.079L237.316 213.607L251.559 187.491H256.815L256.323 165.488C256.323 165.107 256.618 164.8 256.986 164.788C257.404 164.751 257.674 165.083 257.686 165.451L258.202 188.854H252.357L252.37 188.878ZM271.733 136.56L264.427 149.477L257.87 130.9C257.748 130.544 257.932 130.151 258.288 130.028C258.644 129.905 259.037 130.089 259.16 130.445L264.709 146.186L270.529 135.897C270.714 135.566 271.131 135.455 271.463 135.639C271.794 135.823 271.905 136.241 271.72 136.572L271.733 136.56Z" fill="#F4E600"></path></g><defs><clipPath id="clip0_1101_5401"><rect width="500" height="500" fill="white"></rect></clipPath></defs></svg> 